# xmcd
#
# Track frame offsets:
#	150
#	19328
#	45383
#	63830
#	83163
#	103913
#	123000
#	141067
#	158959
#	177905
#	195121
#	216529
#	233373
#	255787
#	278588
#	302569
#
# Disc length: 4424 seconds
#
# Revision: 0
# Processed by: cddbd v1.4PL0 Copyright (c) Steve Scherf et al.
# Submitted via: audiograbber 1.82.01
#
DISCID=c5114610
DTITLE=Christina Aguilera - Stripped
DYEAR=2002
DGENRE=
TTITLE0=Stripped Intro
TTITLE1=Can't Hold Us Down
TTITLE2=Walk Away
TTITLE3=Fighter
TTITLE4=Infatuation (interlude)
TTITLE5=Infatuation
TTITLE6=Loving Me For Me (interlude)
TTITLE7=Loving Me For Me
TTITLE8=Impossible
TTITLE9=Underappreciated
TTITLE10=Beautiful
TTITLE11=Make Over
TTITLE12=Cruz
TTITLE13=Soar
TTITLE14=Get Mine Get Yours
TTITLE15=Dirty
EXTD=
EXTT0=
EXTT1=
EXTT2=
EXTT3=
EXTT4=
EXTT5=
EXTT6=
EXTT7=
EXTT8=
EXTT9=
EXTT10=
EXTT11=
EXTT12=
EXTT13=
EXTT14=
EXTT15=
PLAYORDER=
